<mxfile host="app.diagrams.net" agent="Mozilla/5.0 (Macintosh; Intel Mac OS X 10_15_7) AppleWebKit/537.36 (KHTML, like Gecko) Chrome/141.0.0.0 Safari/537.36" version="28.2.5">
  <diagram name="Page-1" id="ClMktBddSkgYgjNFyX1G">
    <mxGraphModel dx="3187" dy="1785" grid="1" gridSize="10" guides="1" tooltips="1" connect="1" arrows="1" fold="1" page="1" pageScale="1" pageWidth="850" pageHeight="1100" math="0" shadow="0">
      <root>
        <mxCell id="0" />
        <mxCell id="1" parent="0" />
        <mxCell id="lmXQfnAOAwYHJ_hwsSj5-3" value="" style="ellipse;whiteSpace=wrap;html=1;align=center;" vertex="1" parent="1">
          <mxGeometry x="475" y="270" width="40" height="40" as="geometry" />
        </mxCell>
        <mxCell id="lmXQfnAOAwYHJ_hwsSj5-4" value="แสดงผล: เมนูระบบ (1-4)" style="shape=parallelogram;perimeter=parallelogramPerimeter;whiteSpace=wrap;html=1;fixedSize=1;" vertex="1" parent="1">
          <mxGeometry x="345" y="340" width="300" height="60" as="geometry" />
        </mxCell>
        <mxCell id="lmXQfnAOAwYHJ_hwsSj5-5" value="รับค่า &#39;choice&#39; (ตัวเลือก)" style="shape=parallelogram;perimeter=parallelogramPerimeter;whiteSpace=wrap;html=1;fixedSize=1;" vertex="1" parent="1">
          <mxGeometry x="415" y="440" width="160" height="60" as="geometry" />
        </mxCell>
        <mxCell id="lmXQfnAOAwYHJ_hwsSj5-6" value="choice == 1?" style="rhombus;whiteSpace=wrap;html=1;" vertex="1" parent="1">
          <mxGeometry x="440" y="550" width="110" height="80" as="geometry" />
        </mxCell>
        <mxCell id="lmXQfnAOAwYHJ_hwsSj5-117" style="edgeStyle=orthogonalEdgeStyle;rounded=0;orthogonalLoop=1;jettySize=auto;html=1;exitX=0;exitY=0.5;exitDx=0;exitDy=0;entryX=1;entryY=0.5;entryDx=0;entryDy=0;" edge="1" parent="1" source="lmXQfnAOAwYHJ_hwsSj5-145" target="lmXQfnAOAwYHJ_hwsSj5-115">
          <mxGeometry relative="1" as="geometry">
            <mxPoint x="265" y="680" as="sourcePoint" />
          </mxGeometry>
        </mxCell>
        <mxCell id="lmXQfnAOAwYHJ_hwsSj5-8" value="choice == 2?" style="rhombus;whiteSpace=wrap;html=1;" vertex="1" parent="1">
          <mxGeometry x="575" y="650" width="110" height="80" as="geometry" />
        </mxCell>
        <mxCell id="lmXQfnAOAwYHJ_hwsSj5-9" value="แสดง : รับค่า &#39;title&#39; เพื่อค้นหา" style="shape=parallelogram;perimeter=parallelogramPerimeter;whiteSpace=wrap;html=1;fixedSize=1;" vertex="1" parent="1">
          <mxGeometry x="715" y="750" width="200" height="60" as="geometry" />
        </mxCell>
        <mxCell id="lmXQfnAOAwYHJ_hwsSj5-138" style="edgeStyle=orthogonalEdgeStyle;rounded=0;orthogonalLoop=1;jettySize=auto;html=1;exitX=1;exitY=0.5;exitDx=0;exitDy=0;entryX=0;entryY=0.5;entryDx=0;entryDy=0;" edge="1" parent="1" source="lmXQfnAOAwYHJ_hwsSj5-146" target="lmXQfnAOAwYHJ_hwsSj5-137">
          <mxGeometry relative="1" as="geometry">
            <mxPoint x="915" y="880" as="sourcePoint" />
          </mxGeometry>
        </mxCell>
        <mxCell id="lmXQfnAOAwYHJ_hwsSj5-107" style="edgeStyle=orthogonalEdgeStyle;rounded=0;orthogonalLoop=1;jettySize=auto;html=1;exitX=1;exitY=0.5;exitDx=0;exitDy=0;entryX=0.5;entryY=0;entryDx=0;entryDy=0;" edge="1" parent="1" source="lmXQfnAOAwYHJ_hwsSj5-11" target="lmXQfnAOAwYHJ_hwsSj5-13">
          <mxGeometry relative="1" as="geometry" />
        </mxCell>
        <mxCell id="lmXQfnAOAwYHJ_hwsSj5-11" value="choice == 3?" style="rhombus;whiteSpace=wrap;html=1;" vertex="1" parent="1">
          <mxGeometry x="440" y="800" width="110" height="80" as="geometry" />
        </mxCell>
        <mxCell id="lmXQfnAOAwYHJ_hwsSj5-120" style="edgeStyle=orthogonalEdgeStyle;rounded=0;orthogonalLoop=1;jettySize=auto;html=1;exitX=0;exitY=0.5;exitDx=0;exitDy=0;entryX=1;entryY=0.5;entryDx=0;entryDy=0;" edge="1" parent="1" source="lmXQfnAOAwYHJ_hwsSj5-147" target="lmXQfnAOAwYHJ_hwsSj5-116">
          <mxGeometry relative="1" as="geometry">
            <mxPoint x="265" y="950" as="sourcePoint" />
          </mxGeometry>
        </mxCell>
        <mxCell id="lmXQfnAOAwYHJ_hwsSj5-109" style="edgeStyle=orthogonalEdgeStyle;rounded=0;orthogonalLoop=1;jettySize=auto;html=1;exitX=0;exitY=0.5;exitDx=0;exitDy=0;entryX=0.5;entryY=0;entryDx=0;entryDy=0;" edge="1" parent="1" source="lmXQfnAOAwYHJ_hwsSj5-13" target="lmXQfnAOAwYHJ_hwsSj5-15">
          <mxGeometry relative="1" as="geometry" />
        </mxCell>
        <mxCell id="lmXQfnAOAwYHJ_hwsSj5-110" style="edgeStyle=orthogonalEdgeStyle;rounded=0;orthogonalLoop=1;jettySize=auto;html=1;exitX=1;exitY=0.5;exitDx=0;exitDy=0;entryX=0.5;entryY=0;entryDx=0;entryDy=0;" edge="1" parent="1" source="lmXQfnAOAwYHJ_hwsSj5-13" target="lmXQfnAOAwYHJ_hwsSj5-14">
          <mxGeometry relative="1" as="geometry" />
        </mxCell>
        <mxCell id="lmXQfnAOAwYHJ_hwsSj5-13" value="choice == 4?" style="rhombus;whiteSpace=wrap;html=1;" vertex="1" parent="1">
          <mxGeometry x="575" y="950" width="110" height="80" as="geometry" />
        </mxCell>
        <mxCell id="lmXQfnAOAwYHJ_hwsSj5-135" style="edgeStyle=orthogonalEdgeStyle;rounded=0;orthogonalLoop=1;jettySize=auto;html=1;exitX=1;exitY=0.5;exitDx=0;exitDy=0;entryX=0;entryY=0.5;entryDx=0;entryDy=0;" edge="1" parent="1" source="lmXQfnAOAwYHJ_hwsSj5-14" target="lmXQfnAOAwYHJ_hwsSj5-134">
          <mxGeometry relative="1" as="geometry" />
        </mxCell>
        <mxCell id="lmXQfnAOAwYHJ_hwsSj5-14" value="แสดงผล: &quot;Exiting program...&quot;" style="shape=parallelogram;perimeter=parallelogramPerimeter;whiteSpace=wrap;html=1;fixedSize=1;" vertex="1" parent="1">
          <mxGeometry x="667.5" y="1050" width="200" height="60" as="geometry" />
        </mxCell>
        <mxCell id="lmXQfnAOAwYHJ_hwsSj5-15" value="แสดงผล: &quot;Invalid choice!&quot;" style="shape=parallelogram;perimeter=parallelogramPerimeter;whiteSpace=wrap;html=1;fixedSize=1;" vertex="1" parent="1">
          <mxGeometry x="402.5" y="1050" width="200" height="60" as="geometry" />
        </mxCell>
        <mxCell id="lmXQfnAOAwYHJ_hwsSj5-16" value="" style="ellipse;whiteSpace=wrap;html=1;align=center;" vertex="1" parent="1">
          <mxGeometry x="482.5" y="1210" width="40" height="40" as="geometry" />
        </mxCell>
        <mxCell id="lmXQfnAOAwYHJ_hwsSj5-141" style="edgeStyle=orthogonalEdgeStyle;rounded=0;orthogonalLoop=1;jettySize=auto;html=1;exitX=0;exitY=0.5;exitDx=0;exitDy=0;entryX=1;entryY=0.5;entryDx=0;entryDy=0;" edge="1" parent="1" source="lmXQfnAOAwYHJ_hwsSj5-17" target="lmXQfnAOAwYHJ_hwsSj5-140">
          <mxGeometry relative="1" as="geometry" />
        </mxCell>
        <mxCell id="lmXQfnAOAwYHJ_hwsSj5-17" value="choice != 4?" style="rhombus;whiteSpace=wrap;html=1;" vertex="1" parent="1">
          <mxGeometry x="387.5" y="1310" width="230" height="80" as="geometry" />
        </mxCell>
        <mxCell id="lmXQfnAOAwYHJ_hwsSj5-19" style="edgeStyle=orthogonalEdgeStyle;rounded=0;orthogonalLoop=1;jettySize=auto;html=1;exitX=0.5;exitY=1;entryX=0.5;entryY=0;entryDx=0;entryDy=0;exitDx=0;exitDy=0;" edge="1" parent="1" source="lmXQfnAOAwYHJ_hwsSj5-143" target="lmXQfnAOAwYHJ_hwsSj5-144">
          <mxGeometry relative="1" as="geometry">
            <mxPoint x="495" y="130" as="sourcePoint" />
            <mxPoint x="495" y="170" as="targetPoint" />
          </mxGeometry>
        </mxCell>
        <mxCell id="lmXQfnAOAwYHJ_hwsSj5-20" style="edgeStyle=orthogonalEdgeStyle;rounded=0;orthogonalLoop=1;jettySize=auto;html=1;exitX=0.5;exitY=1;entryX=0.5;entryY=0;exitDx=0;exitDy=0;" edge="1" parent="1" source="lmXQfnAOAwYHJ_hwsSj5-144" target="lmXQfnAOAwYHJ_hwsSj5-3">
          <mxGeometry relative="1" as="geometry">
            <mxPoint x="495" y="230" as="sourcePoint" />
          </mxGeometry>
        </mxCell>
        <mxCell id="lmXQfnAOAwYHJ_hwsSj5-21" style="edgeStyle=orthogonalEdgeStyle;rounded=0;orthogonalLoop=1;jettySize=auto;html=1;exitX=0.5;exitY=1;entryX=0.5;entryY=0;" edge="1" parent="1" source="lmXQfnAOAwYHJ_hwsSj5-3" target="lmXQfnAOAwYHJ_hwsSj5-4">
          <mxGeometry relative="1" as="geometry" />
        </mxCell>
        <mxCell id="lmXQfnAOAwYHJ_hwsSj5-22" style="edgeStyle=orthogonalEdgeStyle;rounded=0;orthogonalLoop=1;jettySize=auto;html=1;exitX=0.5;exitY=1;entryX=0.5;entryY=0;" edge="1" parent="1" source="lmXQfnAOAwYHJ_hwsSj5-4" target="lmXQfnAOAwYHJ_hwsSj5-5">
          <mxGeometry relative="1" as="geometry" />
        </mxCell>
        <mxCell id="lmXQfnAOAwYHJ_hwsSj5-23" style="edgeStyle=orthogonalEdgeStyle;rounded=0;orthogonalLoop=1;jettySize=auto;html=1;exitX=0.5;exitY=1;entryX=0.5;entryY=0;" edge="1" parent="1" source="lmXQfnAOAwYHJ_hwsSj5-5" target="lmXQfnAOAwYHJ_hwsSj5-6">
          <mxGeometry relative="1" as="geometry" />
        </mxCell>
        <mxCell id="lmXQfnAOAwYHJ_hwsSj5-24" value="จริง" style="edgeStyle=orthogonalEdgeStyle;rounded=0;orthogonalLoop=1;jettySize=auto;html=1;exitX=0;exitY=0.5;entryX=0.5;entryY=0;entryDx=0;entryDy=0;" edge="1" parent="1" source="lmXQfnAOAwYHJ_hwsSj5-6" target="lmXQfnAOAwYHJ_hwsSj5-145">
          <mxGeometry relative="1" as="geometry">
            <Array as="points">
              <mxPoint x="365" y="590" />
            </Array>
            <mxPoint x="365" y="650" as="targetPoint" />
          </mxGeometry>
        </mxCell>
        <mxCell id="lmXQfnAOAwYHJ_hwsSj5-25" value="เท็จ" style="edgeStyle=orthogonalEdgeStyle;rounded=0;orthogonalLoop=1;jettySize=auto;html=1;exitX=1;exitY=0.5;entryX=0.5;entryY=0;" edge="1" parent="1" source="lmXQfnAOAwYHJ_hwsSj5-6" target="lmXQfnAOAwYHJ_hwsSj5-8">
          <mxGeometry relative="1" as="geometry">
            <Array as="points">
              <mxPoint x="630" y="590" />
            </Array>
          </mxGeometry>
        </mxCell>
        <mxCell id="lmXQfnAOAwYHJ_hwsSj5-26" value="จริง" style="edgeStyle=orthogonalEdgeStyle;rounded=0;orthogonalLoop=1;jettySize=auto;html=1;exitX=1;exitY=0.5;entryX=0.5;entryY=0;" edge="1" parent="1" source="lmXQfnAOAwYHJ_hwsSj5-8" target="lmXQfnAOAwYHJ_hwsSj5-9">
          <mxGeometry relative="1" as="geometry">
            <Array as="points">
              <mxPoint x="815" y="690" />
            </Array>
          </mxGeometry>
        </mxCell>
        <mxCell id="lmXQfnAOAwYHJ_hwsSj5-27" value="เท็จ" style="edgeStyle=orthogonalEdgeStyle;rounded=0;orthogonalLoop=1;jettySize=auto;html=1;exitX=0;exitY=0.5;entryX=0.5;entryY=0;" edge="1" parent="1" source="lmXQfnAOAwYHJ_hwsSj5-8" target="lmXQfnAOAwYHJ_hwsSj5-11">
          <mxGeometry relative="1" as="geometry">
            <Array as="points">
              <mxPoint x="495" y="690" />
            </Array>
          </mxGeometry>
        </mxCell>
        <mxCell id="lmXQfnAOAwYHJ_hwsSj5-28" style="edgeStyle=orthogonalEdgeStyle;rounded=0;orthogonalLoop=1;jettySize=auto;html=1;exitX=0.5;exitY=1;entryX=0.475;entryY=0;entryDx=0;entryDy=0;entryPerimeter=0;" edge="1" parent="1" source="lmXQfnAOAwYHJ_hwsSj5-9" target="lmXQfnAOAwYHJ_hwsSj5-146">
          <mxGeometry relative="1" as="geometry">
            <mxPoint x="815" y="850" as="targetPoint" />
          </mxGeometry>
        </mxCell>
        <mxCell id="lmXQfnAOAwYHJ_hwsSj5-29" style="edgeStyle=orthogonalEdgeStyle;rounded=0;orthogonalLoop=1;jettySize=auto;html=1;exitX=0.5;exitY=1;entryX=0.5;entryY=0;" edge="1" parent="1" source="lmXQfnAOAwYHJ_hwsSj5-15" target="lmXQfnAOAwYHJ_hwsSj5-16">
          <mxGeometry relative="1" as="geometry" />
        </mxCell>
        <mxCell id="lmXQfnAOAwYHJ_hwsSj5-30" style="edgeStyle=orthogonalEdgeStyle;rounded=0;orthogonalLoop=1;jettySize=auto;html=1;exitX=0.5;exitY=1;entryX=0.5;entryY=0;" edge="1" parent="1" source="lmXQfnAOAwYHJ_hwsSj5-16" target="lmXQfnAOAwYHJ_hwsSj5-17">
          <mxGeometry relative="1" as="geometry" />
        </mxCell>
        <mxCell id="lmXQfnAOAwYHJ_hwsSj5-31" value="เท็จ" style="edgeStyle=orthogonalEdgeStyle;rounded=0;orthogonalLoop=1;jettySize=auto;html=1;exitX=0.5;exitY=1;entryX=0.5;entryY=0;" edge="1" parent="1" source="lmXQfnAOAwYHJ_hwsSj5-17">
          <mxGeometry relative="1" as="geometry">
            <mxPoint x="502.5" y="1470" as="targetPoint" />
          </mxGeometry>
        </mxCell>
        <mxCell id="lmXQfnAOAwYHJ_hwsSj5-32" style="edgeStyle=orthogonalEdgeStyle;rounded=0;orthogonalLoop=1;jettySize=auto;html=1;exitX=0.5;exitY=1;exitDx=0;exitDy=0;exitPerimeter=0;entryX=0.5;entryY=0;entryDx=0;entryDy=0;" edge="1" parent="1" target="lmXQfnAOAwYHJ_hwsSj5-35">
          <mxGeometry relative="1" as="geometry">
            <mxPoint x="1730" y="190" as="sourcePoint" />
          </mxGeometry>
        </mxCell>
        <mxCell id="lmXQfnAOAwYHJ_hwsSj5-34" style="edgeStyle=orthogonalEdgeStyle;rounded=0;orthogonalLoop=1;jettySize=auto;html=1;exitX=0.5;exitY=1;exitDx=0;exitDy=0;entryX=0.5;entryY=0;entryDx=0;entryDy=0;" edge="1" parent="1" source="lmXQfnAOAwYHJ_hwsSj5-35" target="lmXQfnAOAwYHJ_hwsSj5-37">
          <mxGeometry relative="1" as="geometry" />
        </mxCell>
        <mxCell id="lmXQfnAOAwYHJ_hwsSj5-35" value="รับค่า ID ของ books[*count]" style="shape=parallelogram;perimeter=parallelogramPerimeter;whiteSpace=wrap;html=1;fixedSize=1;" vertex="1" parent="1">
          <mxGeometry x="1635" y="230" width="190" height="60" as="geometry" />
        </mxCell>
        <mxCell id="lmXQfnAOAwYHJ_hwsSj5-36" style="edgeStyle=orthogonalEdgeStyle;rounded=0;orthogonalLoop=1;jettySize=auto;html=1;exitX=0.5;exitY=1;exitDx=0;exitDy=0;entryX=0.5;entryY=0;entryDx=0;entryDy=0;" edge="1" parent="1" source="lmXQfnAOAwYHJ_hwsSj5-37" target="lmXQfnAOAwYHJ_hwsSj5-39">
          <mxGeometry relative="1" as="geometry" />
        </mxCell>
        <mxCell id="lmXQfnAOAwYHJ_hwsSj5-37" value="รับค่า Title ของ books[*count]" style="shape=parallelogram;perimeter=parallelogramPerimeter;whiteSpace=wrap;html=1;fixedSize=1;" vertex="1" parent="1">
          <mxGeometry x="1655" y="330" width="150" height="60" as="geometry" />
        </mxCell>
        <mxCell id="lmXQfnAOAwYHJ_hwsSj5-38" style="edgeStyle=orthogonalEdgeStyle;rounded=0;orthogonalLoop=1;jettySize=auto;html=1;exitX=0.5;exitY=1;exitDx=0;exitDy=0;entryX=0.5;entryY=0;entryDx=0;entryDy=0;" edge="1" parent="1" source="lmXQfnAOAwYHJ_hwsSj5-39" target="lmXQfnAOAwYHJ_hwsSj5-40">
          <mxGeometry relative="1" as="geometry" />
        </mxCell>
        <mxCell id="lmXQfnAOAwYHJ_hwsSj5-39" value="รับค่า Author ของ books[*count]" style="shape=parallelogram;perimeter=parallelogramPerimeter;whiteSpace=wrap;html=1;fixedSize=1;" vertex="1" parent="1">
          <mxGeometry x="1655" y="430" width="150" height="60" as="geometry" />
        </mxCell>
        <mxCell id="lmXQfnAOAwYHJ_hwsSj5-40" value="รับค่า Year ของ books[*count]" style="shape=parallelogram;perimeter=parallelogramPerimeter;whiteSpace=wrap;html=1;fixedSize=1;" vertex="1" parent="1">
          <mxGeometry x="1655" y="530" width="150" height="60" as="geometry" />
        </mxCell>
        <mxCell id="lmXQfnAOAwYHJ_hwsSj5-41" style="edgeStyle=orthogonalEdgeStyle;rounded=0;orthogonalLoop=1;jettySize=auto;html=1;exitX=0.5;exitY=1;exitDx=0;exitDy=0;entryX=0.5;entryY=0;entryDx=0;entryDy=0;" edge="1" parent="1" source="lmXQfnAOAwYHJ_hwsSj5-153" target="lmXQfnAOAwYHJ_hwsSj5-43">
          <mxGeometry relative="1" as="geometry">
            <mxPoint x="1730" y="690" as="sourcePoint" />
          </mxGeometry>
        </mxCell>
        <mxCell id="lmXQfnAOAwYHJ_hwsSj5-43" value="แสดงผล: &quot;Book added successfully!&quot;" style="shape=parallelogram;perimeter=parallelogramPerimeter;whiteSpace=wrap;html=1;fixedSize=1;" vertex="1" parent="1">
          <mxGeometry x="1605" y="730" width="250" height="60" as="geometry" />
        </mxCell>
        <mxCell id="lmXQfnAOAwYHJ_hwsSj5-86" style="edgeStyle=orthogonalEdgeStyle;rounded=0;orthogonalLoop=1;jettySize=auto;html=1;exitX=0.5;exitY=1;exitDx=0;exitDy=0;entryX=0.5;entryY=0;entryDx=0;entryDy=0;" edge="1" parent="1" source="lmXQfnAOAwYHJ_hwsSj5-47" target="lmXQfnAOAwYHJ_hwsSj5-48">
          <mxGeometry relative="1" as="geometry" />
        </mxCell>
        <mxCell id="lmXQfnAOAwYHJ_hwsSj5-161" style="edgeStyle=orthogonalEdgeStyle;rounded=0;orthogonalLoop=1;jettySize=auto;html=1;exitX=0;exitY=0.5;exitDx=0;exitDy=0;entryX=1;entryY=0.5;entryDx=0;entryDy=0;" edge="1" parent="1" source="lmXQfnAOAwYHJ_hwsSj5-47" target="lmXQfnAOAwYHJ_hwsSj5-159">
          <mxGeometry relative="1" as="geometry" />
        </mxCell>
        <mxCell id="lmXQfnAOAwYHJ_hwsSj5-47" value="i &amp;lt; count?" style="rhombus;whiteSpace=wrap;html=1;" vertex="1" parent="1">
          <mxGeometry x="1205" y="390" width="130" height="80" as="geometry" />
        </mxCell>
        <mxCell id="lmXQfnAOAwYHJ_hwsSj5-87" style="edgeStyle=orthogonalEdgeStyle;rounded=0;orthogonalLoop=1;jettySize=auto;html=1;exitX=0.5;exitY=1;exitDx=0;exitDy=0;entryX=0.5;entryY=0;entryDx=0;entryDy=0;" edge="1" parent="1" source="lmXQfnAOAwYHJ_hwsSj5-48" target="lmXQfnAOAwYHJ_hwsSj5-49">
          <mxGeometry relative="1" as="geometry" />
        </mxCell>
        <mxCell id="lmXQfnAOAwYHJ_hwsSj5-102" style="edgeStyle=orthogonalEdgeStyle;rounded=0;orthogonalLoop=1;jettySize=auto;html=1;exitX=1;exitY=0.5;exitDx=0;exitDy=0;entryX=0;entryY=0.5;entryDx=0;entryDy=0;" edge="1" parent="1" source="lmXQfnAOAwYHJ_hwsSj5-48" target="lmXQfnAOAwYHJ_hwsSj5-98">
          <mxGeometry relative="1" as="geometry" />
        </mxCell>
        <mxCell id="lmXQfnAOAwYHJ_hwsSj5-48" value="Title ตรงกับ books[i].Title?" style="rhombus;whiteSpace=wrap;html=1;" vertex="1" parent="1">
          <mxGeometry x="1177.5" y="530" width="185" height="80" as="geometry" />
        </mxCell>
        <mxCell id="lmXQfnAOAwYHJ_hwsSj5-49" value="แสดงรายละเอียดหนังสือ books[i]" style="shape=parallelogram;perimeter=parallelogramPerimeter;whiteSpace=wrap;html=1;fixedSize=1;" vertex="1" parent="1">
          <mxGeometry x="1195" y="660" width="150" height="60" as="geometry" />
        </mxCell>
        <mxCell id="lmXQfnAOAwYHJ_hwsSj5-90" style="edgeStyle=orthogonalEdgeStyle;rounded=0;orthogonalLoop=1;jettySize=auto;html=1;exitX=0.5;exitY=1;exitDx=0;exitDy=0;entryX=0.5;entryY=0;entryDx=0;entryDy=0;" edge="1" parent="1" source="lmXQfnAOAwYHJ_hwsSj5-152" target="lmXQfnAOAwYHJ_hwsSj5-52">
          <mxGeometry relative="1" as="geometry">
            <mxPoint x="1269.9999999999995" y="830" as="sourcePoint" />
          </mxGeometry>
        </mxCell>
        <mxCell id="lmXQfnAOAwYHJ_hwsSj5-104" style="edgeStyle=orthogonalEdgeStyle;rounded=0;orthogonalLoop=1;jettySize=auto;html=1;exitX=0.5;exitY=0;exitDx=0;exitDy=0;entryX=1;entryY=0.5;entryDx=0;entryDy=0;" edge="1" parent="1" source="lmXQfnAOAwYHJ_hwsSj5-150" target="lmXQfnAOAwYHJ_hwsSj5-105">
          <mxGeometry relative="1" as="geometry">
            <mxPoint x="1350" y="380" as="targetPoint" />
            <mxPoint x="1439.9999999999995" y="400.0000000000002" as="sourcePoint" />
            <Array as="points">
              <mxPoint x="1440" y="400" />
              <mxPoint x="1440" y="340" />
            </Array>
          </mxGeometry>
        </mxCell>
        <mxCell id="lmXQfnAOAwYHJ_hwsSj5-95" style="edgeStyle=orthogonalEdgeStyle;rounded=0;orthogonalLoop=1;jettySize=auto;html=1;exitX=0.5;exitY=1;exitDx=0;exitDy=0;entryX=0.5;entryY=0;entryDx=0;entryDy=0;" edge="1" parent="1" source="lmXQfnAOAwYHJ_hwsSj5-52" target="lmXQfnAOAwYHJ_hwsSj5-94">
          <mxGeometry relative="1" as="geometry" />
        </mxCell>
        <mxCell id="lmXQfnAOAwYHJ_hwsSj5-100" style="edgeStyle=orthogonalEdgeStyle;rounded=0;orthogonalLoop=1;jettySize=auto;html=1;exitX=1;exitY=0.5;exitDx=0;exitDy=0;entryX=0;entryY=0.5;entryDx=0;entryDy=0;" edge="1" parent="1" source="lmXQfnAOAwYHJ_hwsSj5-52" target="lmXQfnAOAwYHJ_hwsSj5-99">
          <mxGeometry relative="1" as="geometry" />
        </mxCell>
        <mxCell id="lmXQfnAOAwYHJ_hwsSj5-52" value="found == 0?" style="rhombus;whiteSpace=wrap;html=1;" vertex="1" parent="1">
          <mxGeometry x="1205" y="910" width="130" height="80" as="geometry" />
        </mxCell>
        <mxCell id="lmXQfnAOAwYHJ_hwsSj5-53" value="แสดงผล: &quot;Book not found.&quot;" style="shape=parallelogram;perimeter=parallelogramPerimeter;whiteSpace=wrap;html=1;fixedSize=1;" vertex="1" parent="1">
          <mxGeometry x="1170" y="1150" width="200" height="60" as="geometry" />
        </mxCell>
        <mxCell id="lmXQfnAOAwYHJ_hwsSj5-55" style="edgeStyle=orthogonalEdgeStyle;rounded=0;orthogonalLoop=1;jettySize=auto;html=1;exitX=0.5;exitY=1;exitDx=0;exitDy=0;exitPerimeter=0;entryX=0.5;entryY=0;entryDx=0;entryDy=0;" edge="1" parent="1" target="lmXQfnAOAwYHJ_hwsSj5-59">
          <mxGeometry relative="1" as="geometry">
            <mxPoint x="2045" y="190" as="sourcePoint" />
          </mxGeometry>
        </mxCell>
        <mxCell id="lmXQfnAOAwYHJ_hwsSj5-57" style="edgeStyle=orthogonalEdgeStyle;rounded=0;orthogonalLoop=1;jettySize=auto;html=1;exitX=0.5;exitY=1;exitDx=0;exitDy=0;entryX=0.5;entryY=0;entryDx=0;entryDy=0;" edge="1" parent="1" source="lmXQfnAOAwYHJ_hwsSj5-59" target="lmXQfnAOAwYHJ_hwsSj5-61">
          <mxGeometry relative="1" as="geometry" />
        </mxCell>
        <mxCell id="lmXQfnAOAwYHJ_hwsSj5-58" style="edgeStyle=orthogonalEdgeStyle;rounded=0;orthogonalLoop=1;jettySize=auto;html=1;exitX=1;exitY=0.5;exitDx=0;exitDy=0;entryX=0.5;entryY=0;entryDx=0;entryDy=0;" edge="1" parent="1" source="lmXQfnAOAwYHJ_hwsSj5-59" target="lmXQfnAOAwYHJ_hwsSj5-62">
          <mxGeometry relative="1" as="geometry" />
        </mxCell>
        <mxCell id="lmXQfnAOAwYHJ_hwsSj5-59" value="count == 0?" style="rhombus;whiteSpace=wrap;html=1;" vertex="1" parent="1">
          <mxGeometry x="1980" y="230" width="130" height="80" as="geometry" />
        </mxCell>
        <mxCell id="lmXQfnAOAwYHJ_hwsSj5-60" style="edgeStyle=orthogonalEdgeStyle;rounded=0;orthogonalLoop=1;jettySize=auto;html=1;exitX=0.5;exitY=1;exitDx=0;exitDy=0;entryX=0.5;entryY=0;entryDx=0;entryDy=0;" edge="1" parent="1" source="lmXQfnAOAwYHJ_hwsSj5-61" target="lmXQfnAOAwYHJ_hwsSj5-74">
          <mxGeometry relative="1" as="geometry" />
        </mxCell>
        <mxCell id="lmXQfnAOAwYHJ_hwsSj5-61" value="แสดงผล: &quot;No books available.&quot;" style="shape=parallelogram;perimeter=parallelogramPerimeter;whiteSpace=wrap;html=1;fixedSize=1;" vertex="1" parent="1">
          <mxGeometry x="1945" y="370" width="200" height="60" as="geometry" />
        </mxCell>
        <mxCell id="lmXQfnAOAwYHJ_hwsSj5-62" value="แสดงผล: &quot;--- All Books ---&quot;" style="shape=parallelogram;perimeter=parallelogramPerimeter;whiteSpace=wrap;html=1;fixedSize=1;" vertex="1" parent="1">
          <mxGeometry x="2145" y="370" width="200" height="60" as="geometry" />
        </mxCell>
        <mxCell id="lmXQfnAOAwYHJ_hwsSj5-63" style="edgeStyle=orthogonalEdgeStyle;rounded=0;orthogonalLoop=1;jettySize=auto;html=1;exitX=0.5;exitY=1;exitDx=0;exitDy=0;entryX=0.5;entryY=0;entryDx=0;entryDy=0;" edge="1" parent="1" source="lmXQfnAOAwYHJ_hwsSj5-154" target="lmXQfnAOAwYHJ_hwsSj5-77">
          <mxGeometry relative="1" as="geometry">
            <mxPoint x="2245" y="530" as="sourcePoint" />
          </mxGeometry>
        </mxCell>
        <mxCell id="lmXQfnAOAwYHJ_hwsSj5-65" style="edgeStyle=orthogonalEdgeStyle;rounded=0;orthogonalLoop=1;jettySize=auto;html=1;exitX=0.5;exitY=1;exitDx=0;exitDy=0;entryX=0.5;entryY=0;entryDx=0;entryDy=0;" edge="1" parent="1" source="lmXQfnAOAwYHJ_hwsSj5-67" target="lmXQfnAOAwYHJ_hwsSj5-68">
          <mxGeometry relative="1" as="geometry" />
        </mxCell>
        <mxCell id="lmXQfnAOAwYHJ_hwsSj5-66" style="edgeStyle=orthogonalEdgeStyle;rounded=0;orthogonalLoop=1;jettySize=auto;html=1;exitX=0;exitY=0.5;exitDx=0;exitDy=0;entryX=1;entryY=0.5;entryDx=0;entryDy=0;" edge="1" parent="1" source="lmXQfnAOAwYHJ_hwsSj5-67" target="lmXQfnAOAwYHJ_hwsSj5-74">
          <mxGeometry relative="1" as="geometry">
            <mxPoint x="2075" y="660" as="targetPoint" />
          </mxGeometry>
        </mxCell>
        <mxCell id="lmXQfnAOAwYHJ_hwsSj5-67" value="i &amp;lt; count?" style="rhombus;whiteSpace=wrap;html=1;" vertex="1" parent="1">
          <mxGeometry x="2180" y="630" width="130" height="80" as="geometry" />
        </mxCell>
        <mxCell id="lmXQfnAOAwYHJ_hwsSj5-68" value="แสดงรายละเอียด books[i]" style="shape=parallelogram;perimeter=parallelogramPerimeter;whiteSpace=wrap;html=1;fixedSize=1;" vertex="1" parent="1">
          <mxGeometry x="2145" y="770" width="200" height="60" as="geometry" />
        </mxCell>
        <mxCell id="lmXQfnAOAwYHJ_hwsSj5-69" style="edgeStyle=orthogonalEdgeStyle;rounded=0;orthogonalLoop=1;jettySize=auto;html=1;exitX=1;exitY=0.5;exitDx=0;exitDy=0;entryX=0;entryY=0.5;entryDx=0;entryDy=0;" edge="1" parent="1" source="lmXQfnAOAwYHJ_hwsSj5-155" target="lmXQfnAOAwYHJ_hwsSj5-79">
          <mxGeometry relative="1" as="geometry">
            <mxPoint x="2295" y="920" as="sourcePoint" />
          </mxGeometry>
        </mxCell>
        <mxCell id="lmXQfnAOAwYHJ_hwsSj5-72" style="edgeStyle=orthogonalEdgeStyle;rounded=0;orthogonalLoop=1;jettySize=auto;html=1;exitX=0.5;exitY=1;exitDx=0;exitDy=0;entryX=0.5;entryY=0;entryDx=0;entryDy=0;" edge="1" parent="1" source="lmXQfnAOAwYHJ_hwsSj5-62" target="lmXQfnAOAwYHJ_hwsSj5-154">
          <mxGeometry relative="1" as="geometry">
            <mxPoint x="2245" y="470" as="targetPoint" />
          </mxGeometry>
        </mxCell>
        <mxCell id="lmXQfnAOAwYHJ_hwsSj5-73" style="edgeStyle=orthogonalEdgeStyle;rounded=0;orthogonalLoop=1;jettySize=auto;html=1;exitX=0.5;exitY=1;exitDx=0;exitDy=0;entryX=0.5;entryY=0;entryDx=0;entryDy=0;" edge="1" parent="1" source="lmXQfnAOAwYHJ_hwsSj5-68" target="lmXQfnAOAwYHJ_hwsSj5-155">
          <mxGeometry relative="1" as="geometry">
            <mxPoint x="2245" y="890" as="targetPoint" />
          </mxGeometry>
        </mxCell>
        <mxCell id="lmXQfnAOAwYHJ_hwsSj5-74" value="" style="ellipse;whiteSpace=wrap;html=1;aspect=fixed;" vertex="1" parent="1">
          <mxGeometry x="2025" y="650" width="40" height="40" as="geometry" />
        </mxCell>
        <mxCell id="lmXQfnAOAwYHJ_hwsSj5-75" style="edgeStyle=orthogonalEdgeStyle;rounded=0;orthogonalLoop=1;jettySize=auto;html=1;exitX=0.5;exitY=1;exitDx=0;exitDy=0;entryX=0.5;entryY=0;entryDx=0;entryDy=0;entryPerimeter=0;" edge="1" parent="1" source="lmXQfnAOAwYHJ_hwsSj5-74">
          <mxGeometry relative="1" as="geometry">
            <mxPoint x="2045" y="970" as="targetPoint" />
          </mxGeometry>
        </mxCell>
        <mxCell id="lmXQfnAOAwYHJ_hwsSj5-76" style="edgeStyle=orthogonalEdgeStyle;rounded=0;orthogonalLoop=1;jettySize=auto;html=1;exitX=0.5;exitY=1;exitDx=0;exitDy=0;entryX=0.5;entryY=0;entryDx=0;entryDy=0;" edge="1" parent="1" source="lmXQfnAOAwYHJ_hwsSj5-77" target="lmXQfnAOAwYHJ_hwsSj5-67">
          <mxGeometry relative="1" as="geometry" />
        </mxCell>
        <mxCell id="lmXQfnAOAwYHJ_hwsSj5-77" value="" style="ellipse;whiteSpace=wrap;html=1;aspect=fixed;" vertex="1" parent="1">
          <mxGeometry x="2225" y="570" width="40" height="40" as="geometry" />
        </mxCell>
        <mxCell id="lmXQfnAOAwYHJ_hwsSj5-78" style="edgeStyle=orthogonalEdgeStyle;rounded=0;orthogonalLoop=1;jettySize=auto;html=1;exitX=0.5;exitY=0;exitDx=0;exitDy=0;entryX=0.5;entryY=1;entryDx=0;entryDy=0;" edge="1" parent="1" source="lmXQfnAOAwYHJ_hwsSj5-79" target="lmXQfnAOAwYHJ_hwsSj5-81">
          <mxGeometry relative="1" as="geometry">
            <mxPoint x="2425.4347826087032" y="620" as="targetPoint" />
          </mxGeometry>
        </mxCell>
        <mxCell id="lmXQfnAOAwYHJ_hwsSj5-79" value="" style="ellipse;whiteSpace=wrap;html=1;aspect=fixed;" vertex="1" parent="1">
          <mxGeometry x="2405" y="900" width="40" height="40" as="geometry" />
        </mxCell>
        <mxCell id="lmXQfnAOAwYHJ_hwsSj5-80" style="edgeStyle=orthogonalEdgeStyle;rounded=0;orthogonalLoop=1;jettySize=auto;html=1;exitX=0;exitY=0.5;exitDx=0;exitDy=0;entryX=1;entryY=0.5;entryDx=0;entryDy=0;" edge="1" parent="1" source="lmXQfnAOAwYHJ_hwsSj5-81" target="lmXQfnAOAwYHJ_hwsSj5-77">
          <mxGeometry relative="1" as="geometry" />
        </mxCell>
        <mxCell id="lmXQfnAOAwYHJ_hwsSj5-81" value="" style="ellipse;whiteSpace=wrap;html=1;aspect=fixed;" vertex="1" parent="1">
          <mxGeometry x="2405" y="570" width="40" height="40" as="geometry" />
        </mxCell>
        <mxCell id="lmXQfnAOAwYHJ_hwsSj5-82" style="edgeStyle=orthogonalEdgeStyle;rounded=0;orthogonalLoop=1;jettySize=auto;html=1;exitX=0.5;exitY=1;exitDx=0;exitDy=0;entryX=0.5;entryY=0;entryDx=0;entryDy=0;" edge="1" parent="1" source="lmXQfnAOAwYHJ_hwsSj5-40" target="lmXQfnAOAwYHJ_hwsSj5-153">
          <mxGeometry relative="1" as="geometry">
            <mxPoint x="1730" y="630" as="targetPoint" />
          </mxGeometry>
        </mxCell>
        <mxCell id="lmXQfnAOAwYHJ_hwsSj5-83" style="edgeStyle=orthogonalEdgeStyle;rounded=0;orthogonalLoop=1;jettySize=auto;html=1;exitX=0.5;exitY=1;exitDx=0;exitDy=0;entryX=0.5;entryY=0;entryDx=0;entryDy=0;entryPerimeter=0;" edge="1" parent="1" source="lmXQfnAOAwYHJ_hwsSj5-43">
          <mxGeometry relative="1" as="geometry">
            <mxPoint x="1730" y="830" as="targetPoint" />
          </mxGeometry>
        </mxCell>
        <mxCell id="lmXQfnAOAwYHJ_hwsSj5-85" style="edgeStyle=orthogonalEdgeStyle;rounded=0;orthogonalLoop=1;jettySize=auto;html=1;exitX=0.5;exitY=1;exitDx=0;exitDy=0;entryX=0.5;entryY=0;entryDx=0;entryDy=0;" edge="1" parent="1" source="lmXQfnAOAwYHJ_hwsSj5-148" target="lmXQfnAOAwYHJ_hwsSj5-105">
          <mxGeometry relative="1" as="geometry">
            <mxPoint x="1270" y="290" as="sourcePoint" />
          </mxGeometry>
        </mxCell>
        <mxCell id="lmXQfnAOAwYHJ_hwsSj5-89" style="edgeStyle=orthogonalEdgeStyle;rounded=0;orthogonalLoop=1;jettySize=auto;html=1;exitX=0.5;exitY=1;exitDx=0;exitDy=0;entryX=0.5;entryY=0;entryDx=0;entryDy=0;" edge="1" parent="1" source="lmXQfnAOAwYHJ_hwsSj5-49" target="lmXQfnAOAwYHJ_hwsSj5-152">
          <mxGeometry relative="1" as="geometry">
            <mxPoint x="1269.9999999999995" y="770" as="targetPoint" />
          </mxGeometry>
        </mxCell>
        <mxCell id="lmXQfnAOAwYHJ_hwsSj5-92" style="edgeStyle=orthogonalEdgeStyle;rounded=0;orthogonalLoop=1;jettySize=auto;html=1;exitX=0.5;exitY=1;exitDx=0;exitDy=0;entryX=0.5;entryY=0;entryDx=0;entryDy=0;entryPerimeter=0;" edge="1" parent="1" source="lmXQfnAOAwYHJ_hwsSj5-53">
          <mxGeometry relative="1" as="geometry">
            <mxPoint x="1270" y="1290" as="targetPoint" />
          </mxGeometry>
        </mxCell>
        <mxCell id="lmXQfnAOAwYHJ_hwsSj5-96" style="edgeStyle=orthogonalEdgeStyle;rounded=0;orthogonalLoop=1;jettySize=auto;html=1;exitX=0.5;exitY=1;exitDx=0;exitDy=0;entryX=0.5;entryY=0;entryDx=0;entryDy=0;" edge="1" parent="1" source="lmXQfnAOAwYHJ_hwsSj5-94" target="lmXQfnAOAwYHJ_hwsSj5-53">
          <mxGeometry relative="1" as="geometry" />
        </mxCell>
        <mxCell id="lmXQfnAOAwYHJ_hwsSj5-94" value="" style="ellipse;whiteSpace=wrap;html=1;aspect=fixed;" vertex="1" parent="1">
          <mxGeometry x="1250" y="1050" width="40" height="40" as="geometry" />
        </mxCell>
        <mxCell id="lmXQfnAOAwYHJ_hwsSj5-98" value="" style="ellipse;whiteSpace=wrap;html=1;aspect=fixed;" vertex="1" parent="1">
          <mxGeometry x="1420" y="550" width="40" height="40" as="geometry" />
        </mxCell>
        <mxCell id="lmXQfnAOAwYHJ_hwsSj5-101" style="edgeStyle=orthogonalEdgeStyle;rounded=0;orthogonalLoop=1;jettySize=auto;html=1;exitX=0.5;exitY=0;exitDx=0;exitDy=0;entryX=0.5;entryY=1;entryDx=0;entryDy=0;" edge="1" parent="1" source="lmXQfnAOAwYHJ_hwsSj5-99" target="lmXQfnAOAwYHJ_hwsSj5-98">
          <mxGeometry relative="1" as="geometry" />
        </mxCell>
        <mxCell id="lmXQfnAOAwYHJ_hwsSj5-99" value="" style="ellipse;whiteSpace=wrap;html=1;aspect=fixed;" vertex="1" parent="1">
          <mxGeometry x="1420" y="930" width="40" height="40" as="geometry" />
        </mxCell>
        <mxCell id="lmXQfnAOAwYHJ_hwsSj5-103" style="edgeStyle=orthogonalEdgeStyle;rounded=0;orthogonalLoop=1;jettySize=auto;html=1;exitX=0.5;exitY=0;exitDx=0;exitDy=0;entryX=0.5;entryY=1;entryDx=0;entryDy=0;" edge="1" parent="1" source="lmXQfnAOAwYHJ_hwsSj5-98" target="lmXQfnAOAwYHJ_hwsSj5-150">
          <mxGeometry relative="1" as="geometry">
            <mxPoint x="1439.9999999999995" y="460.0000000000002" as="targetPoint" />
          </mxGeometry>
        </mxCell>
        <mxCell id="lmXQfnAOAwYHJ_hwsSj5-106" style="edgeStyle=orthogonalEdgeStyle;rounded=0;orthogonalLoop=1;jettySize=auto;html=1;exitX=0.5;exitY=1;exitDx=0;exitDy=0;entryX=0.5;entryY=0;entryDx=0;entryDy=0;" edge="1" parent="1" source="lmXQfnAOAwYHJ_hwsSj5-105" target="lmXQfnAOAwYHJ_hwsSj5-47">
          <mxGeometry relative="1" as="geometry" />
        </mxCell>
        <mxCell id="lmXQfnAOAwYHJ_hwsSj5-105" value="" style="ellipse;whiteSpace=wrap;html=1;aspect=fixed;" vertex="1" parent="1">
          <mxGeometry x="1250" y="320" width="40" height="40" as="geometry" />
        </mxCell>
        <mxCell id="lmXQfnAOAwYHJ_hwsSj5-108" style="edgeStyle=orthogonalEdgeStyle;rounded=0;orthogonalLoop=1;jettySize=auto;html=1;exitX=0;exitY=0.5;exitDx=0;exitDy=0;entryX=0.476;entryY=0;entryDx=0;entryDy=0;entryPerimeter=0;" edge="1" parent="1" source="lmXQfnAOAwYHJ_hwsSj5-11" target="lmXQfnAOAwYHJ_hwsSj5-147">
          <mxGeometry relative="1" as="geometry">
            <mxPoint x="365" y="920" as="targetPoint" />
          </mxGeometry>
        </mxCell>
        <mxCell id="lmXQfnAOAwYHJ_hwsSj5-118" style="edgeStyle=orthogonalEdgeStyle;rounded=0;orthogonalLoop=1;jettySize=auto;html=1;exitX=0.5;exitY=1;exitDx=0;exitDy=0;" edge="1" parent="1" source="lmXQfnAOAwYHJ_hwsSj5-115" target="lmXQfnAOAwYHJ_hwsSj5-116">
          <mxGeometry relative="1" as="geometry" />
        </mxCell>
        <mxCell id="lmXQfnAOAwYHJ_hwsSj5-115" value="" style="ellipse;whiteSpace=wrap;html=1;align=center;" vertex="1" parent="1">
          <mxGeometry x="180" y="660" width="40" height="40" as="geometry" />
        </mxCell>
        <mxCell id="lmXQfnAOAwYHJ_hwsSj5-123" style="edgeStyle=orthogonalEdgeStyle;rounded=0;orthogonalLoop=1;jettySize=auto;html=1;exitX=0.5;exitY=1;exitDx=0;exitDy=0;" edge="1" parent="1" source="lmXQfnAOAwYHJ_hwsSj5-116" target="lmXQfnAOAwYHJ_hwsSj5-122">
          <mxGeometry relative="1" as="geometry" />
        </mxCell>
        <mxCell id="lmXQfnAOAwYHJ_hwsSj5-116" value="" style="ellipse;whiteSpace=wrap;html=1;align=center;" vertex="1" parent="1">
          <mxGeometry x="180" y="930" width="40" height="40" as="geometry" />
        </mxCell>
        <mxCell id="lmXQfnAOAwYHJ_hwsSj5-124" style="edgeStyle=orthogonalEdgeStyle;rounded=0;orthogonalLoop=1;jettySize=auto;html=1;exitX=1;exitY=0.5;exitDx=0;exitDy=0;entryX=0;entryY=0.5;entryDx=0;entryDy=0;" edge="1" parent="1" source="lmXQfnAOAwYHJ_hwsSj5-122" target="lmXQfnAOAwYHJ_hwsSj5-16">
          <mxGeometry relative="1" as="geometry" />
        </mxCell>
        <mxCell id="lmXQfnAOAwYHJ_hwsSj5-122" value="" style="ellipse;whiteSpace=wrap;html=1;align=center;" vertex="1" parent="1">
          <mxGeometry x="180" y="1210" width="40" height="40" as="geometry" />
        </mxCell>
        <mxCell id="lmXQfnAOAwYHJ_hwsSj5-127" style="edgeStyle=orthogonalEdgeStyle;rounded=0;orthogonalLoop=1;jettySize=auto;html=1;exitX=0;exitY=0.5;exitDx=0;exitDy=0;entryX=1;entryY=0.5;entryDx=0;entryDy=0;" edge="1" parent="1" source="lmXQfnAOAwYHJ_hwsSj5-125" target="lmXQfnAOAwYHJ_hwsSj5-16">
          <mxGeometry relative="1" as="geometry" />
        </mxCell>
        <mxCell id="lmXQfnAOAwYHJ_hwsSj5-125" value="" style="ellipse;whiteSpace=wrap;html=1;align=center;" vertex="1" parent="1">
          <mxGeometry x="950" y="1210" width="40" height="40" as="geometry" />
        </mxCell>
        <mxCell id="lmXQfnAOAwYHJ_hwsSj5-136" style="edgeStyle=orthogonalEdgeStyle;rounded=0;orthogonalLoop=1;jettySize=auto;html=1;exitX=0.5;exitY=1;exitDx=0;exitDy=0;entryX=0.5;entryY=0;entryDx=0;entryDy=0;" edge="1" parent="1" source="lmXQfnAOAwYHJ_hwsSj5-134" target="lmXQfnAOAwYHJ_hwsSj5-125">
          <mxGeometry relative="1" as="geometry" />
        </mxCell>
        <mxCell id="lmXQfnAOAwYHJ_hwsSj5-134" value="" style="ellipse;whiteSpace=wrap;html=1;align=center;" vertex="1" parent="1">
          <mxGeometry x="950" y="1060" width="40" height="40" as="geometry" />
        </mxCell>
        <mxCell id="lmXQfnAOAwYHJ_hwsSj5-139" style="edgeStyle=orthogonalEdgeStyle;rounded=0;orthogonalLoop=1;jettySize=auto;html=1;exitX=0.5;exitY=1;exitDx=0;exitDy=0;entryX=0.5;entryY=0;entryDx=0;entryDy=0;" edge="1" parent="1" source="lmXQfnAOAwYHJ_hwsSj5-137" target="lmXQfnAOAwYHJ_hwsSj5-134">
          <mxGeometry relative="1" as="geometry" />
        </mxCell>
        <mxCell id="lmXQfnAOAwYHJ_hwsSj5-137" value="" style="ellipse;whiteSpace=wrap;html=1;align=center;" vertex="1" parent="1">
          <mxGeometry x="950" y="860" width="40" height="40" as="geometry" />
        </mxCell>
        <mxCell id="lmXQfnAOAwYHJ_hwsSj5-142" style="edgeStyle=orthogonalEdgeStyle;rounded=0;orthogonalLoop=1;jettySize=auto;html=1;exitX=0.5;exitY=0;exitDx=0;exitDy=0;entryX=0;entryY=0.5;entryDx=0;entryDy=0;" edge="1" parent="1" source="lmXQfnAOAwYHJ_hwsSj5-140" target="lmXQfnAOAwYHJ_hwsSj5-3">
          <mxGeometry relative="1" as="geometry" />
        </mxCell>
        <mxCell id="lmXQfnAOAwYHJ_hwsSj5-140" value="" style="ellipse;whiteSpace=wrap;html=1;align=center;" vertex="1" parent="1">
          <mxGeometry x="120" y="1330" width="40" height="40" as="geometry" />
        </mxCell>
        <mxCell id="lmXQfnAOAwYHJ_hwsSj5-143" value="Start" style="ellipse;whiteSpace=wrap;html=1;" vertex="1" parent="1">
          <mxGeometry x="435" y="60" width="120" height="80" as="geometry" />
        </mxCell>
        <mxCell id="lmXQfnAOAwYHJ_hwsSj5-144" value="กำหนดตัวแปร: books[100], count = 0, choice, title" style="rounded=0;whiteSpace=wrap;html=1;" vertex="1" parent="1">
          <mxGeometry x="345" y="170" width="300" height="60" as="geometry" />
        </mxCell>
        <mxCell id="lmXQfnAOAwYHJ_hwsSj5-145" value="ฟังก์ชัน: addBook(books, &amp;amp;count)" style="shape=process;whiteSpace=wrap;html=1;backgroundOutline=1;" vertex="1" parent="1">
          <mxGeometry x="265" y="650" width="200" height="60" as="geometry" />
        </mxCell>
        <mxCell id="lmXQfnAOAwYHJ_hwsSj5-146" value="ฟังก์ชัน: searchBook(books, count, title)" style="shape=process;whiteSpace=wrap;html=1;backgroundOutline=1;" vertex="1" parent="1">
          <mxGeometry x="720" y="850" width="200" height="60" as="geometry" />
        </mxCell>
        <mxCell id="lmXQfnAOAwYHJ_hwsSj5-147" value="ฟังก์ชัน: displayBooks(books, count)" style="shape=process;whiteSpace=wrap;html=1;backgroundOutline=1;" vertex="1" parent="1">
          <mxGeometry x="265" y="920" width="210" height="60" as="geometry" />
        </mxCell>
        <mxCell id="lmXQfnAOAwYHJ_hwsSj5-148" value="กำหนด: i = 0, found = 0" style="rounded=0;whiteSpace=wrap;html=1;" vertex="1" parent="1">
          <mxGeometry x="1200" y="230" width="140" height="60" as="geometry" />
        </mxCell>
        <mxCell id="lmXQfnAOAwYHJ_hwsSj5-150" value="เพิ่มค่า i (i++)" style="rounded=0;whiteSpace=wrap;html=1;" vertex="1" parent="1">
          <mxGeometry x="1380" y="400" width="120" height="60" as="geometry" />
        </mxCell>
        <mxCell id="lmXQfnAOAwYHJ_hwsSj5-152" value="กำหนด: found = 1" style="rounded=0;whiteSpace=wrap;html=1;" vertex="1" parent="1">
          <mxGeometry x="1210" y="780" width="120" height="60" as="geometry" />
        </mxCell>
        <mxCell id="lmXQfnAOAwYHJ_hwsSj5-153" value="เพิ่มค่า count (count++)" style="rounded=0;whiteSpace=wrap;html=1;" vertex="1" parent="1">
          <mxGeometry x="1650" y="630" width="160" height="60" as="geometry" />
        </mxCell>
        <mxCell id="lmXQfnAOAwYHJ_hwsSj5-154" value="กำหนด: i = 0" style="rounded=0;whiteSpace=wrap;html=1;" vertex="1" parent="1">
          <mxGeometry x="2185" y="470" width="120" height="60" as="geometry" />
        </mxCell>
        <mxCell id="lmXQfnAOAwYHJ_hwsSj5-155" value="เพิ่มค่า i (i++)" style="rounded=0;whiteSpace=wrap;html=1;" vertex="1" parent="1">
          <mxGeometry x="2185" y="890" width="120" height="60" as="geometry" />
        </mxCell>
        <mxCell id="lmXQfnAOAwYHJ_hwsSj5-156" value="สิ้นสุด" style="ellipse;whiteSpace=wrap;html=1;" vertex="1" parent="1">
          <mxGeometry x="442.5" y="1470" width="120" height="80" as="geometry" />
        </mxCell>
        <mxCell id="lmXQfnAOAwYHJ_hwsSj5-162" style="edgeStyle=orthogonalEdgeStyle;rounded=0;orthogonalLoop=1;jettySize=auto;html=1;exitX=0.5;exitY=1;exitDx=0;exitDy=0;" edge="1" parent="1" source="lmXQfnAOAwYHJ_hwsSj5-159" target="lmXQfnAOAwYHJ_hwsSj5-160">
          <mxGeometry relative="1" as="geometry" />
        </mxCell>
        <mxCell id="lmXQfnAOAwYHJ_hwsSj5-159" value="" style="ellipse;whiteSpace=wrap;html=1;aspect=fixed;" vertex="1" parent="1">
          <mxGeometry x="1110" y="410" width="40" height="40" as="geometry" />
        </mxCell>
        <mxCell id="lmXQfnAOAwYHJ_hwsSj5-163" style="edgeStyle=orthogonalEdgeStyle;rounded=0;orthogonalLoop=1;jettySize=auto;html=1;exitX=1;exitY=0.5;exitDx=0;exitDy=0;entryX=0;entryY=0.5;entryDx=0;entryDy=0;" edge="1" parent="1" source="lmXQfnAOAwYHJ_hwsSj5-160" target="lmXQfnAOAwYHJ_hwsSj5-94">
          <mxGeometry relative="1" as="geometry" />
        </mxCell>
        <mxCell id="lmXQfnAOAwYHJ_hwsSj5-160" value="" style="ellipse;whiteSpace=wrap;html=1;aspect=fixed;" vertex="1" parent="1">
          <mxGeometry x="1110" y="1050" width="40" height="40" as="geometry" />
        </mxCell>
        <mxCell id="lmXQfnAOAwYHJ_hwsSj5-165" style="edgeStyle=orthogonalEdgeStyle;rounded=0;orthogonalLoop=1;jettySize=auto;html=1;exitX=0.5;exitY=1;exitDx=0;exitDy=0;entryX=0.5;entryY=0;entryDx=0;entryDy=0;" edge="1" parent="1" source="lmXQfnAOAwYHJ_hwsSj5-164" target="lmXQfnAOAwYHJ_hwsSj5-148">
          <mxGeometry relative="1" as="geometry" />
        </mxCell>
        <mxCell id="lmXQfnAOAwYHJ_hwsSj5-164" value="searchBook" style="ellipse;whiteSpace=wrap;html=1;" vertex="1" parent="1">
          <mxGeometry x="1210" y="90" width="120" height="80" as="geometry" />
        </mxCell>
        <mxCell id="lmXQfnAOAwYHJ_hwsSj5-166" value="End searchBook" style="ellipse;whiteSpace=wrap;html=1;" vertex="1" parent="1">
          <mxGeometry x="1210" y="1290" width="120" height="80" as="geometry" />
        </mxCell>
        <mxCell id="lmXQfnAOAwYHJ_hwsSj5-167" value="End addBook" style="ellipse;whiteSpace=wrap;html=1;" vertex="1" parent="1">
          <mxGeometry x="1670" y="830" width="120" height="80" as="geometry" />
        </mxCell>
        <mxCell id="lmXQfnAOAwYHJ_hwsSj5-169" value="End displayBooks" style="ellipse;whiteSpace=wrap;html=1;" vertex="1" parent="1">
          <mxGeometry x="1985" y="970" width="120" height="80" as="geometry" />
        </mxCell>
        <mxCell id="lmXQfnAOAwYHJ_hwsSj5-170" value="addBook" style="ellipse;whiteSpace=wrap;html=1;" vertex="1" parent="1">
          <mxGeometry x="1670" y="110" width="120" height="80" as="geometry" />
        </mxCell>
        <mxCell id="lmXQfnAOAwYHJ_hwsSj5-171" value="displayBooks" style="ellipse;whiteSpace=wrap;html=1;" vertex="1" parent="1">
          <mxGeometry x="1985" y="110" width="120" height="80" as="geometry" />
        </mxCell>
      </root>
    </mxGraphModel>
  </diagram>
</mxfile>
